<svg width="104" height="38" viewBox="0 0 104 38" fill="none" xmlns="http://www.w3.org/2000/svg">
<path d="M7.63031 3.784V31.336H20.7823L20.0143 37H0.57431V3.784H7.63031Z" fill="#1C1C1C"/>
<path d="M34.3374 10.792C38.1454 10.792 41.1214 11.992 43.2654 14.392C45.4094 16.76 46.4814 20.056 46.4814 24.28C46.4814 26.968 45.9854 29.336 44.9934 31.384C44.0334 33.4 42.6254 34.968 40.7694 36.088C38.9454 37.208 36.7854 37.768 34.2894 37.768C30.4814 37.768 27.4894 36.584 25.3134 34.216C23.1694 31.816 22.0974 28.504 22.0974 24.28C22.0974 21.592 22.5774 19.24 23.5374 17.224C24.5294 15.176 25.9374 13.592 27.7614 12.472C29.6174 11.352 31.8094 10.792 34.3374 10.792ZM34.3374 15.88C32.6094 15.88 31.3134 16.568 30.4494 17.944C29.6174 19.288 29.2014 21.4 29.2014 24.28C29.2014 27.16 29.6174 29.288 30.4494 30.664C31.3134 32.008 32.5934 32.68 34.2894 32.68C35.9854 32.68 37.2494 32.008 38.0814 30.664C38.9454 29.288 39.3774 27.16 39.3774 24.28C39.3774 21.4 38.9614 19.288 38.1294 17.944C37.2974 16.568 36.0334 15.88 34.3374 15.88Z" fill="#1C1C1C"/>
<path d="M65.4407 10.792C68.4167 10.792 70.7207 11.976 72.3527 14.344C74.0167 16.712 74.8487 20.024 74.8487 24.28C74.8487 26.904 74.4327 29.24 73.6007 31.288C72.8007 33.304 71.6327 34.888 70.0967 36.04C68.5927 37.192 66.8167 37.768 64.7687 37.768C61.9847 37.768 59.7607 36.68 58.0967 34.504L57.7127 37H51.6647V1.432L58.4807 0.664001V14.296C59.2807 13.208 60.2887 12.36 61.5047 11.752C62.7207 11.112 64.0327 10.792 65.4407 10.792ZM62.8487 32.728C66.1127 32.728 67.7447 29.912 67.7447 24.28C67.7447 21.176 67.3447 19 66.5447 17.752C65.7767 16.472 64.6567 15.832 63.1847 15.832C61.3607 15.832 59.7927 16.92 58.4807 19.096V29.992C59.6007 31.816 61.0567 32.728 62.8487 32.728Z" fill="#1C1C1C"/>
<path d="M90.9624 10.792C94.7704 10.792 97.7464 11.992 99.8904 14.392C102.034 16.76 103.106 20.056 103.106 24.28C103.106 26.968 102.61 29.336 101.618 31.384C100.658 33.4 99.2504 34.968 97.3944 36.088C95.5704 37.208 93.4104 37.768 90.9144 37.768C87.1064 37.768 84.1144 36.584 81.9384 34.216C79.7944 31.816 78.7224 28.504 78.7224 24.28C78.7224 21.592 79.2024 19.24 80.1624 17.224C81.1544 15.176 82.5624 13.592 84.3864 12.472C86.2424 11.352 88.4344 10.792 90.9624 10.792ZM90.9624 15.88C89.2344 15.88 87.9384 16.568 87.0744 17.944C86.2424 19.288 85.8264 21.4 85.8264 24.28C85.8264 27.16 86.2424 29.288 87.0744 30.664C87.9384 32.008 89.2184 32.68 90.9144 32.68C92.6104 32.68 93.8744 32.008 94.7064 30.664C95.5704 29.288 96.0024 27.16 96.0024 24.28C96.0024 21.4 95.5864 19.288 94.7544 17.944C93.9224 16.568 92.6584 15.88 90.9624 15.88Z" fill="#1C1C1C"/>
</svg>
